<?xml version="1.0" encoding="UTF-8" standalone="no"?>
<!-- Created with Inkscape (http://www.inkscape.org/) -->

<svg
   xmlns:osb="http://www.openswatchbook.org/uri/2009/osb"
   xmlns:dc="http://purl.org/dc/elements/1.1/"
   xmlns:cc="http://creativecommons.org/ns#"
   xmlns:rdf="http://www.w3.org/1999/02/22-rdf-syntax-ns#"
   xmlns:svg="http://www.w3.org/2000/svg"
   xmlns="http://www.w3.org/2000/svg"
   xmlns:xlink="http://www.w3.org/1999/xlink"
   xmlns:sodipodi="http://sodipodi.sourceforge.net/DTD/sodipodi-0.dtd"
   xmlns:inkscape="http://www.inkscape.org/namespaces/inkscape"
   width="210mm"
   height="297mm"
   viewBox="0 0 210 297"
   version="1.1"
   id="svg5107"
   inkscape:version="0.92.4 (5da689c313, 2019-01-14)"
   sodipodi:docname="drawing.svg">
  <defs
     id="defs5101">
    <linearGradient
       id="linearGradient5701"
       osb:paint="solid">
      <stop
         style="stop-color:#d8d8d8;stop-opacity:1;"
         offset="0"
         id="stop5699" />
    </linearGradient>
    <linearGradient
       id="linearGradient5695"
       osb:paint="solid">
      <stop
         style="stop-color:#ffffff;stop-opacity:1;"
         offset="0"
         id="stop5693" />
    </linearGradient>
    <linearGradient
       inkscape:collect="always"
       xlink:href="#linearGradient5695"
       id="linearGradient5697"
       x1="76.812445"
       y1="153.27594"
       x2="106.87758"
       y2="153.27594"
       gradientUnits="userSpaceOnUse" />
  </defs>
  <sodipodi:namedview
     id="base"
     pagecolor="#ffffff"
     bordercolor="#666666"
     borderopacity="1.0"
     inkscape:pageopacity="0.0"
     inkscape:pageshadow="2"
     inkscape:zoom="2.591343"
     inkscape:cx="281.14052"
     inkscape:cy="641.37469"
     inkscape:document-units="mm"
     inkscape:current-layer="layer1"
     showgrid="false"
     inkscape:window-width="3840"
     inkscape:window-height="2066"
     inkscape:window-x="5749"
     inkscape:window-y="-11"
     inkscape:window-maximized="1" />
  <metadata
     id="metadata5104">
    <rdf:RDF>
      <cc:Work
         rdf:about="">
        <dc:format>image/svg+xml</dc:format>
        <dc:type
           rdf:resource="http://purl.org/dc/dcmitype/StillImage" />
        <dc:title></dc:title>
      </cc:Work>
    </rdf:RDF>
  </metadata>
  <g
     inkscape:label="Layer 1"
     inkscape:groupmode="layer"
     id="layer1">
    <rect
       style="fill:#2d2dff;fill-opacity:1;stroke:#ffffff;stroke-width:0.27722564;stroke-opacity:1"
       id="rect5707-7"
       width="25"
       height="25"
       x="86.503555"
       y="78.384636"
       rx="3.453815"
       ry="4"
       transform="matrix(0.90910578,0.41656533,-0.00426402,0.99999091,0,0)" />
    <rect
       style="fill:#d1d123;fill-opacity:1;stroke:#ffffff;stroke-width:0.30651736;stroke-opacity:1"
       id="rect5707-7-0"
       width="24.934626"
       height="24.88192"
       x="71.879837"
       y="-207.8578"
       rx="3.407418"
       ry="3.9452379"
       transform="matrix(-0.9142099,0.40524098,-0.91167961,-0.41090179,0,0)" />
    <rect
       style="fill:#ff2d2d;fill-opacity:1;stroke:#ffffff;stroke-width:0.27722564;stroke-opacity:1"
       id="rect5707-7-7"
       width="25"
       height="25"
       x="-195.69814"
       y="110.63969"
       rx="3.453815"
       ry="4"
       transform="matrix(-0.00204506,-0.99999791,0.91002789,-0.41454703,0,0)" />
    <rect
       style="fill:#2d2dff;fill-opacity:1;stroke:#ffffff;stroke-width:0.27722564;stroke-opacity:1"
       id="rect5707-7-50"
       width="25"
       height="25"
       x="61.503551"
       y="78.384636"
       rx="3.453815"
       ry="4"
       transform="matrix(0.90910578,0.41656534,-0.00426402,0.99999091,0,0)" />
    <rect
       style="fill:#d1d123;fill-opacity:1;stroke:#ffffff;stroke-width:0.30651736;stroke-opacity:1"
       id="rect5707-7-0-6"
       width="24.934626"
       height="24.88192"
       x="71.879837"
       y="-182.97588"
       rx="3.407418"
       ry="3.9452376"
       transform="matrix(-0.9142099,0.40524099,-0.91167962,-0.41090178,0,0)" />
    <rect
       style="fill:#d1d123;fill-opacity:1;stroke:#ffffff;stroke-width:0.30651736;stroke-opacity:1"
       id="rect5707-7-0-5"
       width="24.934626"
       height="24.88192"
       x="71.879837"
       y="-158.09395"
       rx="3.407418"
       ry="3.9452376"
       transform="matrix(-0.9142099,0.40524099,-0.91167962,-0.41090178,0,0)" />
    <rect
       style="fill:#d1d123;fill-opacity:1;stroke:#ffffff;stroke-width:0.30651736;stroke-opacity:1"
       id="rect5707-7-0-1"
       width="24.934626"
       height="24.88192"
       x="46.945213"
       y="-207.8578"
       rx="3.407418"
       ry="3.9452376"
       transform="matrix(-0.9142099,0.40524099,-0.91167962,-0.41090178,0,0)" />
    <rect
       style="fill:#d1d123;fill-opacity:1;stroke:#ffffff;stroke-width:0.30651736;stroke-opacity:1"
       id="rect5707-7-0-1-6"
       width="24.934626"
       height="24.88192"
       x="22.010586"
       y="-207.8578"
       rx="3.407418"
       ry="3.9452374"
       transform="matrix(-0.9142099,0.40524099,-0.91167962,-0.41090178,0,0)" />
    <rect
       style="fill:#ff2d2d;fill-opacity:1;stroke:#ffffff;stroke-width:0.27722564;stroke-opacity:1"
       id="rect5707-7-7-4"
       width="25"
       height="25"
       x="-195.69814"
       y="135.63968"
       rx="3.453815"
       ry="4"
       transform="matrix(-0.00204506,-0.99999791,0.91002789,-0.41454702,0,0)" />
    <rect
       style="fill:#ff2d2d;fill-opacity:1;stroke:#ffffff;stroke-width:0.27722564;stroke-opacity:1"
       id="rect5707-7-7-8"
       width="25"
       height="25"
       x="-196.04707"
       y="160.68974"
       rx="3.453815"
       ry="4"
       transform="matrix(-0.00204506,-0.99999791,0.91002789,-0.41454702,0,0)" />
    <rect
       style="fill:#d1d123;fill-opacity:1;stroke:#ffffff;stroke-width:0.30651736;stroke-opacity:1"
       id="rect5707-7-0-6-2"
       width="24.934626"
       height="24.88192"
       x="46.94521"
       y="-182.97588"
       rx="3.407418"
       ry="3.9452374"
       transform="matrix(-0.9142099,0.40524099,-0.91167962,-0.41090178,0,0)" />
    <rect
       style="fill:#d1d123;fill-opacity:1;stroke:#ffffff;stroke-width:0.30651736;stroke-opacity:1"
       id="rect5707-7-0-6-9"
       width="24.934626"
       height="24.88192"
       x="22.01059"
       y="-182.97589"
       rx="3.407418"
       ry="3.9452374"
       transform="matrix(-0.9142099,0.40524099,-0.91167962,-0.41090178,0,0)" />
    <rect
       style="fill:#d1d123;fill-opacity:1;stroke:#ffffff;stroke-width:0.30651736;stroke-opacity:1"
       id="rect5707-7-0-6-4"
       width="24.934626"
       height="24.88192"
       x="46.94521"
       y="-158.09395"
       rx="3.407418"
       ry="3.9452374"
       transform="matrix(-0.9142099,0.40524099,-0.91167962,-0.41090178,0,0)" />
    <rect
       style="fill:#d1d123;fill-opacity:1;stroke:#ffffff;stroke-width:0.30651736;stroke-opacity:1"
       id="rect5707-7-0-6-3"
       width="24.934626"
       height="24.88192"
       x="22.010586"
       y="-158.09395"
       rx="3.407418"
       ry="3.9452374"
       transform="matrix(-0.9142099,0.40524099,-0.91167962,-0.41090178,0,0)" />
    <rect
       style="fill:#2d2dff;fill-opacity:1;stroke:#ffffff;stroke-width:0.27722564;stroke-opacity:1"
       id="rect5707-7-50-9"
       width="25"
       height="25"
       x="36.600407"
       y="128.7245"
       rx="3.453815"
       ry="4"
       transform="matrix(0.90910578,0.41656535,-0.00426402,0.99999091,0,0)" />
    <rect
       style="fill:#2d2dff;fill-opacity:1;stroke:#ffffff;stroke-width:0.27722564;stroke-opacity:1"
       id="rect5707-7-50-1"
       width="25"
       height="25"
       x="86.503555"
       y="103.38464"
       rx="3.453815"
       ry="4"
       transform="matrix(0.90910578,0.41656535,-0.00426402,0.99999091,0,0)" />
    <rect
       style="fill:#2d2dff;fill-opacity:1;stroke:#ffffff;stroke-width:0.27722564;stroke-opacity:1"
       id="rect5707-7-50-8"
       width="25"
       height="25"
       x="61.600407"
       y="103.7245"
       rx="3.453815"
       ry="4"
       transform="matrix(0.90910578,0.41656535,-0.00426402,0.99999091,0,0)" />
    <rect
       style="fill:#2d2dff;fill-opacity:1;stroke:#ffffff;stroke-width:0.27722564;stroke-opacity:1"
       id="rect5707-7-50-7"
       width="25"
       height="25"
       x="36.600407"
       y="103.7245"
       rx="3.453815"
       ry="4"
       transform="matrix(0.90910578,0.41656535,-0.00426402,0.99999091,0,0)" />
    <rect
       style="fill:#2d2dff;fill-opacity:1;stroke:#ffffff;stroke-width:0.27722564;stroke-opacity:1"
       id="rect5707-7-50-73"
       width="25"
       height="25"
       x="36.600407"
       y="78.724503"
       rx="3.453815"
       ry="4"
       transform="matrix(0.90910578,0.41656535,-0.00426402,0.99999091,0,0)" />
    <rect
       style="fill:#2d2dff;fill-opacity:1;stroke:#ffffff;stroke-width:0.27722564;stroke-opacity:1"
       id="rect5707-7-50-0"
       width="25"
       height="25"
       x="61.600407"
       y="128.7245"
       rx="3.453815"
       ry="4"
       transform="matrix(0.90910578,0.41656535,-0.00426402,0.99999091,0,0)" />
    <rect
       style="fill:#2d2dff;fill-opacity:1;stroke:#ffffff;stroke-width:0.27722564;stroke-opacity:1"
       id="rect5707-7-50-6"
       width="25"
       height="25"
       x="86.503555"
       y="128.38464"
       rx="3.453815"
       ry="4"
       transform="matrix(0.90910578,0.41656535,-0.00426402,0.99999091,0,0)" />
    <rect
       style="fill:#ff2d2d;fill-opacity:1;stroke:#ffffff;stroke-width:0.27722564;stroke-opacity:1"
       id="rect5707-7-7-41"
       width="25"
       height="25"
       x="-220.62619"
       y="110.46653"
       rx="3.453815"
       ry="4"
       transform="matrix(-0.00204506,-0.99999791,0.91002789,-0.41454702,0,0)" />
    <rect
       style="fill:#ff2d2d;fill-opacity:1;stroke:#ffffff;stroke-width:0.27722564;stroke-opacity:1"
       id="rect5707-7-7-41-8"
       width="25"
       height="25"
       x="-220.69814"
       y="135.63968"
       rx="3.453815"
       ry="4"
       transform="matrix(-0.00204506,-0.99999791,0.91002789,-0.41454702,0,0)" />
    <rect
       style="fill:#ff2d2d;fill-opacity:1;stroke:#ffffff;stroke-width:0.27722564;stroke-opacity:1"
       id="rect5707-7-7-41-8-3"
       width="25"
       height="25"
       x="-221.04707"
       y="160.68974"
       rx="3.453815"
       ry="4"
       transform="matrix(-0.00204506,-0.99999791,0.91002789,-0.41454702,0,0)" />
    <rect
       style="fill:#ff2d2d;fill-opacity:1;stroke:#ffffff;stroke-width:0.27722564;stroke-opacity:1"
       id="rect5707-7-7-41-9"
       width="25"
       height="25"
       x="-245.62619"
       y="110.46653"
       rx="3.453815"
       ry="4"
       transform="matrix(-0.00204506,-0.99999791,0.91002789,-0.41454702,0,0)" />
    <rect
       style="fill:#ff2d2d;fill-opacity:1;stroke:#ffffff;stroke-width:0.27722564;stroke-opacity:1"
       id="rect5707-7-7-41-9-4"
       width="25"
       height="25"
       x="-245.69814"
       y="135.63968"
       rx="3.453815"
       ry="4"
       transform="matrix(-0.00204506,-0.99999791,0.91002789,-0.41454702,0,0)" />
    <rect
       style="fill:#ff2d2d;fill-opacity:1;stroke:#ffffff;stroke-width:0.27722564;stroke-opacity:1"
       id="rect5707-7-7-41-9-4-3"
       width="25"
       height="25"
       x="-246.04707"
       y="160.68974"
       rx="3.453815"
       ry="4"
       transform="matrix(-0.00204506,-0.99999791,0.91002789,-0.41454702,0,0)" />
  </g>
</svg>
